PathFileType	4	(X/Y/Z)	D:\TRACE\v60_Jaco2_6-2-23\JustBodyDRS_Motion2_4-platform.trc
DataRate	CameraRate	NumFrames	NumMarkers	Units	OrigDataRate	OrigDataStartFrame	OrigNumFrames
100.00	100.00	      41	5	mm	100.00	5191	      6921
Frame#	Time	Left_Front			Right_Front			Left_Aft			Right_Aft			Post			
		X1	Y1	Z1	X2	Y2	Z2	X3	Y3	Z3	X4	Y4	Z4	X5	Y5	Z5	

5191	51.900	-851.22858	-34.59487	-647.27905	718.97491	-33.21995	-652.84106	-759.08295	36.81528	485.43396	682.51575	37.40182	494.63812	-65.17908	1241.30078	-1055.80212	
5192	51.910	-851.14026	-35.64252	-647.79901	718.93243	-34.29595	-652.99487	-758.87549	37.10150	485.27322	683.01208	38.31797	494.23560	-65.07829	1239.43970	-1058.28418	
5193	51.920	-851.20978	-36.85654	-647.88617	718.88037	-35.49772	-653.26379	-758.90558	38.12833	484.95819	682.84210	38.75474	493.94705	-65.19440	1237.68323	-1060.39221	
5194	51.930	-851.11890	-37.57544	-647.79230	719.03381	-36.16655	-653.28894	-758.98553	38.94837	484.67419	682.71893	39.42334	493.67456	-65.35251	1236.52161	-1062.27649	
5195	51.940	-851.04205	-38.58100	-648.21082	719.08002	-37.13352	-653.53503	-759.18066	39.70145	484.39709	682.68146	40.11022	493.47247	-65.31875	1234.82068	-1064.00830	
5196	51.950	-850.41705	-40.60928	-648.46698	718.87323	-38.12828	-653.69208	-759.13623	40.34391	484.02991	682.94006	40.89034	493.32730	-65.37022	1233.36353	-1065.88538	
5197	51.960	-850.67859	-40.72144	-648.56879	719.26276	-39.17300	-653.82990	-759.32568	41.26309	483.43430	683.10303	41.56080	492.99734	-65.34387	1231.83191	-1067.79529	
5198	51.970	-850.40540	-41.71887	-648.79126	719.45569	-40.22451	-654.01306	-758.84613	41.72157	483.49927	683.49817	42.21659	492.75235	-64.93438	1230.37524	-1069.13403	
5199	51.980	-850.22943	-42.26402	-648.98633	720.20343	-40.42495	-653.71936	-758.59918	42.26225	483.44919	683.99640	42.76967	492.43826	-64.87950	1229.15173	-1070.70386	
5200	51.990	-849.96503	-43.08599	-649.13635	720.56006	-41.58899	-653.89282	-758.24969	43.10863	483.15274	684.32501	43.46700	492.24435	-64.04405	1227.69812	-1072.16003	
5201	52.000	-849.60669	-43.83694	-649.20923	720.75317	-42.25645	-654.19855	-758.12421	43.94259	482.97549	684.53473	43.91043	491.96140	-63.70217	1226.29163	-1073.66846	
5202	52.010	-849.22870	-44.78453	-649.17737	721.06665	-43.11943	-654.37701	-756.87866	43.46332	482.60681	684.79877	44.41945	491.82449	-63.59082	1225.03784	-1074.86414	
5203	52.020	-848.79474	-45.57309	-649.24835	721.41541	-43.70327	-654.44830	-756.84546	44.05672	482.46945	684.87646	44.86686	491.60391	-63.41126	1224.00684	-1076.36938	
5204	52.030	-848.39117	-46.56796	-649.40118	721.72382	-44.21250	-654.50775	-756.35327	44.64343	482.28241	685.53040	45.39695	491.32428	-63.31791	1222.99500	-1077.57361	
5205	52.040	-847.97021	-46.79388	-649.39618	722.20477	-44.42028	-654.50732	-756.21198	45.04490	482.04446	685.87592	45.75957	491.21185	-62.59808	1221.77368	-1078.90063	
5206	52.050	-847.90765	-47.32352	-649.61047	722.36053	-45.73721	-654.82526	-755.87500	45.57743	481.89780	686.51312	46.16781	491.08740	-62.02279	1220.81384	-1080.31165	
5207	52.060	-847.47046	-48.31385	-649.76794	722.89142	-46.91199	-654.76111	-755.44501	46.11937	481.69238	687.09052	46.66265	490.66031	-61.92204	1219.92908	-1081.55273	
5208	52.070	-846.80817	-49.15353	-649.97949	723.46069	-47.36205	-655.02179	-754.80609	46.38637	481.51099	687.06610	46.71462	490.44229	-61.25260	1219.04028	-1082.54053	
5209	52.080	-846.13397	-49.52062	-649.94244	724.06519	-47.41735	-655.22937	-754.49103	46.61354	481.35699	687.75140	47.10590	490.57150	-60.50455	1218.00757	-1083.92529	
5210	52.090	-845.61401	-49.74501	-649.83270	724.38153	-47.79872	-655.20428	-753.80286	47.10981	481.20255	688.10797	47.46890	490.42053	-60.01252	1217.06055	-1084.95117	
5211	52.100	-845.26306	-50.13817	-649.87463	724.85730	-48.50619	-655.15436	-753.46912	47.42901	481.14746	688.89728	47.98860	490.30930	-59.69027	1216.47253	-1086.11951	
5212	52.110	-844.77594	-50.86340	-650.22229	725.35291	-48.83817	-655.21533	-753.11877	47.78433	480.86209	689.36707	48.28030	490.13199	-59.45509	1215.66772	-1087.50049	
5213	52.120	-844.51190	-51.41553	-650.41809	725.79907	-49.06475	-655.18097	-752.47235	47.97015	480.66446	689.80988	48.59474	490.07172	-59.02439	1215.01294	-1088.44800	
5214	52.130	-843.99945	-51.67143	-650.42822	726.41174	-49.81353	-655.40717	-751.79926	48.05789	480.59784	690.19061	48.84303	490.03058	-57.71590	1214.28723	-1089.41907	
5215	52.140	-843.18628	-51.78208	-650.45148	727.04504	-50.23861	-655.60199	-751.29205	48.44728	480.45209	690.87482	49.10281	489.92932	-57.53443	1213.81384	-1090.13684	
5216	52.150	-842.33868	-51.97733	-650.35052	727.66882	-50.37791	-655.50195	-750.60376	48.36964	480.50937	692.17749	49.74268	489.94061	-56.81989	1213.42456	-1091.16370	
5217	52.160	-841.90656	-52.24337	-650.35785	728.06720	-50.49669	-655.51025	-750.18768	48.71927	480.41367	692.89282	50.12283	489.98288	-56.49644	1213.08154	-1091.90076	
5218	52.170	-841.36560	-52.73636	-650.50153	728.84338	-50.77989	-655.41669	-749.44104	48.90968	480.30380	693.59082	50.37954	489.91089	-55.38633	1212.42737	-1093.09009	
5219	52.180	-840.81110	-52.89495	-650.71222	729.47144	-50.94301	-655.49335	-748.74048	48.99276	480.30487	694.16113	50.33641	489.88281	-54.89122	1212.09485	-1093.18726	
5220	52.190	-840.27881	-53.16715	-650.58734	730.16986	-51.21772	-655.75940	-748.21173	48.96102	480.34729	694.32465	50.05297	489.27542	-53.95868	1211.57385	-1094.01074	
5221	52.200	-839.32880	-53.21966	-650.37695	730.76581	-51.17027	-655.79785	-747.54822	49.10501	480.37576	695.04218	50.05154	489.63849	-53.51106	1211.63611	-1094.24561	
5222	52.210	-838.36597	-53.23656	-650.40369	731.58942	-51.18872	-655.68744	-746.67621	49.19847	480.32159	695.88202	50.17120	489.63467	-53.10338	1211.51624	-1094.52734	
5223	52.220	-837.90802	-53.26322	-650.36658	732.43573	-51.30320	-655.52588	-746.04163	49.29272	480.15375	696.48157	50.20668	489.64926	-52.31601	1211.45459	-1094.80859	
5224	52.230	-837.34198	-53.26982	-650.48798	733.01227	-51.19288	-655.61456	-745.64166	49.59924	479.70511	697.01605	50.10394	489.61609	-51.20258	1211.45508	-1095.21985	
5225	52.240	-836.52032	-53.30212	-650.63617	733.76459	-51.21479	-655.80432	-744.55737	49.39321	480.15402	697.68860	50.02402	489.58469	-50.64361	1211.55432	-1095.02417	
5226	52.250	-835.65350	-53.39725	-650.47760	734.50726	-51.28312	-655.72571	-743.90802	49.33710	480.10928	698.32220	50.02332	489.67099	-50.19147	1211.59985	-1095.03052	
5227	52.260	-834.65057	-53.25513	-650.42242	735.19537	-51.13064	-655.83704	-743.04712	49.18142	480.13602	699.58435	50.09513	489.62625	-49.14519	1211.66602	-1094.87427	
5228	52.270	-834.13330	-53.04726	-650.46124	736.05933	-51.05386	-655.67627	-742.29504	49.05516	480.23041	700.18781	50.06497	489.62698	-48.30677	1211.81921	-1094.69702	
5229	52.280	-833.38971	-52.70225	-650.44592	736.67883	-50.74276	-655.75616	-741.51563	49.02862	480.27591	700.85046	49.84035	489.59064	-47.71932	1212.16016	-1094.57910	
5230	52.290	-832.48328	-52.73631	-650.69135	737.51892	-50.63282	-655.80853	-740.58569	48.83325	480.37827	700.74109	48.89471	489.09399	-46.96622	1212.54041	-1093.96790	
5231	52.300	-831.67987	-52.36253	-650.62823	738.41907	-50.59541	-655.70673	-739.90576	48.53566	480.35236	702.40710	49.54462	489.37042	-46.28609	1212.86633	-1093.48828	
